PathFileType	4	(X/Y/Z)	OpenSim_Sub09_EMGBaseline_Gyro.trc
DataRate	CameraRate	NumFrames	NumMarkers	Units	OrigDataRate	OrigDataStartFrame	OrigNumFrames
100	100	13	8	m	100	5476	7301
Frame#	Time	torso_imu_offset_imu	pelvis_imu_offset_imu	tibia_r_imu_offset_imu	femur_r_imu_offset_imu	tibia_l_imu_offset_imu	femur_l_imu_offset_imu	toes_r_imu_offset_imu	toes_l_imu_offset_imu
				X1	Y1	Z1	X2	Y2	Z2	X3	Y3	Z3	X4	Y4	Z4	X5	Y5	Z5	X6	Y6	Z6	X7	Y7	Z7	X8		Y8	Z8	

5476	54.75000000	-0.09849400	-0.25294800	-0.07482900	-0.12008100	0.11386700	0.00631900	-0.39031700	1.75642900	4.62833400	-0.07088300	-0.45351300	-0.26391900	-0.00630100	0.00962600	0.76501400	-0.71365000	-0.18380400	0.73875400	-0.31990900	3.71981700	1.84928300	-0.13291000	0.01190900	0.15300800
5477	54.76000000	-0.07104600	-0.23705000	-0.07312700	-0.08442700	0.09277700	0.01929200	-0.46751400	1.57463500	4.34681200	-0.10297700	-0.57347100	-0.40674500	0.00259400	0.02659000	0.82666500	-0.74682600	-0.17722900	0.72434500	-0.18882500	3.74446700	1.67830700	-0.12364400	0.01515200	0.16197600
5478	54.77000000	-0.05529000	-0.21526800	-0.06330600	-0.04423200	0.06738000	0.01950800	-0.42662100	1.48605300	4.07086600	-0.01968600	-0.60073500	-0.58515000	0.00832500	0.04168700	0.86716000	-0.72581400	-0.17514200	0.71066800	0.04254400	3.73727100	1.57756600	-0.14918500	0.00900800	0.18482600
5479	54.78000000	-0.03144200	-0.19481800	-0.04730100	0.01212400	0.03374300	0.01000800	-0.36656800	1.39808500	3.85025500	0.07679200	-0.55572900	-0.74079500	0.01010100	0.04669800	0.89077200	-0.67915500	-0.16956800	0.69932700	0.42577000	3.71666600	1.55249400	-0.15823100	0.00158800	0.21071200
5480	54.79000000	-0.01240700	-0.16935400	-0.03898000	0.05016900	0.00827500	0.00372900	-0.22672900	1.38812200	3.68926500	0.14027200	-0.47194400	-0.83518300	0.03380500	0.04458900	0.91214600	-0.63304800	-0.16001900	0.68556600	0.75017700	3.63687100	1.64860000	-0.16664300	-0.02277800	0.23532100
5481	54.80000000	0.00525800	-0.14594300	-0.02202200	0.08190600	-0.01366600	0.00500900	0.11864000	1.45276400	3.48429300	0.17286100	-0.33998100	-0.87618600	0.08025400	0.05682700	0.97118600	-0.57439900	-0.14445300	0.67121500	0.84252300	3.43329000	1.82899200	-0.15551400	-0.03458100	0.24131500
5482	54.81000000	0.02165800	-0.11657900	-0.00828200	0.08873300	-0.03067100	-0.00435900	0.49461200	1.43858200	3.16447900	0.19490300	-0.14865500	-0.86126200	0.13491800	0.07901800	1.04081000	-0.49348700	-0.11706400	0.65818800	0.67710700	3.07667200	2.01789500	-0.15133700	-0.06527300	0.25721700
5483	54.82000000	0.03420300	-0.08947400	0.01311400	0.08441900	-0.03596300	-0.01106700	0.87078100	1.32026600	2.72381800	0.24221900	0.03705200	-0.77399400	0.17474700	0.10271900	1.09654400	-0.39954000	-0.07824200	0.63580400	0.36180400	2.56158400	2.12648000	-0.15594500	-0.09071100	0.28333700
5484	54.83000000	0.04761400	-0.06096300	0.02878500	0.06271800	-0.05017500	-0.00941800	1.06803700	1.17686900	2.23229700	0.33777100	0.09561200	-0.57063200	0.10482500	0.10631000	1.14086700	-0.31683400	-0.03755400	0.62151600	0.08434700	2.00313500	2.09949700	-0.16054300	-0.12209100	0.29926800
5485	54.84000000	0.04183500	-0.02516700	0.05288700	0.03972500	-0.05738900	-0.00727400	1.09144300	1.01670700	1.75901400	0.42531200	0.03042300	-0.31230300	0.06166000	0.11704300	1.21421300	-0.24797500	-0.00470600	0.56767900	-0.07387900	1.43803700	1.94281000	-0.16642200	-0.16745500	0.32914400
5486	54.85000000	0.03374400	0.00577400	0.07892700	0.03976300	-0.08962900	0.00286900	1.00231000	0.75406400	1.29009500	0.41256300	-0.05818800	-0.02963600	0.03535500	0.14838700	1.29870100	-0.22866900	0.03522400	0.49772300	-0.11527100	0.82180800	1.64958500	-0.18579100	-0.20931100	0.35876900
5487	54.86000000	0.02802200	0.03955200	0.09983700	0.06303000	-0.12681300	0.01343100	0.73290200	0.34387600	0.82113100	0.25063100	-0.12644500	0.25573200	-0.01466900	0.17956000	1.38460200	-0.23505700	0.06464100	0.41202800	-0.02490100	0.17002000	1.25911200	-0.23663600	-0.27522900	0.40376600
5488	54.87000000	0.01916600	0.06303300	0.12206900	0.09932100	-0.17138800	0.02655100	0.47830300	0.01008500	0.28811000	0.08295300	-0.20813200	0.50750400	-0.02963900	0.21301000	1.47029100	-0.26553500	0.08570200	0.33597700	0.16337300	-0.34595700	0.83877200	-0.24841900	-0.34354000	0.44881700
